<svg width="108" height="46" viewBox="0 0 108 46" fill="none" xmlns="http://www.w3.org/2000/svg">
<path d="M6.97249 12.3795V22.2025H7.03446L14.9362 12.3795H19.9871L11.0008 23.225L20.297 35.0002H15.2461L7.03446 24.2476H6.97249V35.0002H2.63428V12.3795H6.97249Z" fill="white"/>
<path d="M27.6782 18.577C30.1366 18.577 31.9028 19.0624 32.9771 20.0334C34.0513 20.9836 34.5884 22.533 34.5884 24.6814V30.662C34.5884 32.1287 34.7433 33.5748 35.0532 35.0002H31.2418C31.1178 34.3185 31.0249 33.5231 30.9629 32.6142H30.9009C30.3225 33.4612 29.5375 34.1222 28.5459 34.5974C27.575 35.0725 26.5111 35.3101 25.3542 35.3101C23.8462 35.3101 22.6377 34.8969 21.7287 34.0706C20.8404 33.2236 20.3963 32.0564 20.3963 30.569C20.3963 28.7718 21.1503 27.336 22.6583 26.2618C24.187 25.1669 26.3768 24.6195 29.2276 24.6195H30.5601V24.5265C30.5601 23.4316 30.3432 22.6673 29.9093 22.2334C29.4755 21.7996 28.7008 21.5827 27.5853 21.5827C25.5608 21.5827 23.6499 22.0475 21.8527 22.9771L21.2639 19.9714C23.2264 19.0418 25.3645 18.577 27.6782 18.577ZM24.1767 30.2591C24.1767 30.9202 24.3729 31.4367 24.7654 31.8085C25.158 32.1803 25.6951 32.3663 26.3768 32.3663C27.5543 32.3663 28.5459 31.9841 29.3516 31.2197C30.1572 30.4554 30.5601 29.4948 30.5601 28.3379V27.2844H29.2276C27.5956 27.2844 26.3458 27.5633 25.4782 28.121C24.6105 28.6581 24.1767 29.3708 24.1767 30.2591Z" fill="white"/>
<path d="M43.2307 19.5066H48.7774V22.5123H43.2307V29.1126C43.2307 30.3314 43.3856 31.1578 43.6955 31.5916C44.0054 32.0048 44.5631 32.2113 45.3688 32.2113C46.3604 32.2113 47.29 32.0357 48.1577 31.6846L48.6844 34.6903C47.4036 35.1035 46.0195 35.3101 44.5322 35.3101C42.6316 35.3101 41.2475 34.8866 40.3799 34.0396C39.5329 33.1926 39.1094 31.7878 39.1094 29.8253V22.5123H35.7628V19.5066H39.1094V13.619H43.2307V19.5066Z" fill="white"/>
<path d="M52.4402 35.0002V18.8868H56.6854V35.0002H52.4402Z" fill="white"/>
<path d="M71.6511 22.7912C69.9364 22.0062 68.2528 21.6137 66.6001 21.6137C64.6996 21.6137 63.7493 22.1715 63.7493 23.287C63.7493 23.8241 63.9559 24.2373 64.3691 24.5265C64.7822 24.8157 65.5053 25.0326 66.5382 25.1772C68.8312 25.5078 70.4735 26.1069 71.4651 26.9745C72.4567 27.8215 72.9525 28.999 72.9525 30.507C72.9525 31.9944 72.3741 33.1719 71.2172 34.0396C70.081 34.8866 68.4697 35.3101 66.3832 35.3101C63.8836 35.3101 61.6628 34.7936 59.721 33.7607L60.4957 30.7239C62.2516 31.7362 64.1418 32.2423 66.1663 32.2423C67.9636 32.2423 68.8622 31.6432 68.8622 30.4451C68.8622 29.8873 68.6763 29.4741 68.3044 29.2056C67.9326 28.9164 67.2096 28.6788 66.1353 28.4929C63.8629 28.121 62.2309 27.5116 61.2394 26.6646C60.2684 25.8176 59.783 24.6711 59.783 23.225C59.783 21.7996 60.3407 20.6738 61.4563 19.8474C62.5925 19.0004 64.2348 18.577 66.3832 18.577C68.5317 18.577 70.5459 18.9695 72.4257 19.7545L71.6511 22.7912Z" fill="white"/>
<path d="M75.2267 11.7598H79.255V20.963H79.317C80.6598 19.3723 82.3124 18.577 84.275 18.577C86.1342 18.577 87.4976 19.1554 88.3653 20.3122C89.2536 21.4484 89.6977 23.318 89.6977 25.9209V35.0002H85.7314V26.3238C85.7314 24.5472 85.5248 23.349 85.1116 22.7292C84.6985 22.0888 83.9548 21.7686 82.8805 21.7686C81.9096 21.7686 81.0626 22.2541 80.3396 23.225C79.6165 24.1753 79.255 25.2392 79.255 26.4167V35.0002H75.2267V11.7598Z" fill="white"/>
<path d="M98.7915 18.577C101.25 18.577 103.016 19.0624 104.09 20.0334C105.165 20.9836 105.702 22.533 105.702 24.6814V30.662C105.702 32.1287 105.857 33.5748 106.166 35.0002H102.355C102.231 34.3185 102.138 33.5231 102.076 32.6142H102.014C101.436 33.4612 100.651 34.1222 99.6592 34.5974C98.6882 35.0725 97.6243 35.3101 96.4675 35.3101C94.9594 35.3101 93.7509 34.8969 92.842 34.0706C91.9537 33.2236 91.5095 32.0564 91.5095 30.569C91.5095 28.7718 92.2635 27.336 93.7716 26.2618C95.3003 25.1669 97.4901 24.6195 100.341 24.6195H101.673V24.5265C101.673 23.4316 101.456 22.6673 101.023 22.2334C100.589 21.7996 99.8141 21.5827 98.6986 21.5827C96.6741 21.5827 94.7632 22.0475 92.9659 22.9771L92.3772 19.9714C94.3397 19.0418 96.4778 18.577 98.7915 18.577ZM95.29 30.2591C95.29 30.9202 95.4862 31.4367 95.8787 31.8085C96.2712 32.1803 96.8083 32.3663 97.4901 32.3663C98.6676 32.3663 99.6592 31.9841 100.465 31.2197C101.271 30.4554 101.673 29.4948 101.673 28.3379V27.2844H100.341C98.7089 27.2844 97.4591 27.5633 96.5914 28.121C95.7238 28.6581 95.29 29.3708 95.29 30.2591Z" fill="white"/>
<g clip-path="url(#clip0_681_1115)">
<path d="M57.6596 10.3849L57.6967 10.3828L57.7422 10.3856L57.7736 10.3912L57.8166 10.4034L57.8541 10.4195L57.889 10.4395L57.9205 10.4629L57.9492 10.4891L57.9674 10.5097L57.996 10.5503L58.0142 10.5839C58.0307 10.6188 58.0411 10.6559 58.0457 10.6944L58.0474 10.7314C58.0474 10.7577 58.0446 10.7835 58.039 10.8084L58.0268 10.8514L55.7427 17.1726C55.6994 17.2669 55.6299 17.3467 55.5426 17.4027C55.4553 17.4587 55.3537 17.4884 55.25 17.4884C55.1566 17.4887 55.0646 17.4647 54.9832 17.419C54.9018 17.3732 54.8336 17.3071 54.7853 17.2271L54.7625 17.1827L53.5904 14.8392L51.258 13.6726C51.1717 13.6332 51.0973 13.5717 51.0422 13.4945C50.9871 13.4172 50.9532 13.3268 50.944 13.2324L50.9419 13.1803C50.9419 12.9844 51.0471 12.8054 51.236 12.7012L51.2849 12.6767L57.5852 10.4017L57.6222 10.3912L57.6596 10.3849Z" fill="white"/>
</g>
<defs>
<clipPath id="clip0_681_1115">
<rect width="8.39237" height="8.39237" fill="white" transform="translate(50.3542 9.68262)"/>
</clipPath>
</defs>
</svg>
