<svg width="51" height="51" viewBox="0 0 51 51" fill="none" xmlns="http://www.w3.org/2000/svg">
<rect width="50.3542" height="50.3542" rx="25.1771" fill="#008BFF"/>
<path d="M37.6488 21.6849C37.6983 21.9664 37.6333 22.2559 37.4685 22.4902C37.3036 22.7245 37.0522 22.8849 36.7694 22.9348C35.9212 23.0844 35.1663 23.5626 34.6718 24.2655C34.1772 24.9685 33.9833 25.8385 34.1322 26.683C34.2811 27.5274 34.761 28.2778 35.4659 28.7693C36.171 29.2606 37.0441 29.4528 37.8924 29.3033C38.175 29.2535 38.4661 29.3174 38.7011 29.481C38.9362 29.6448 39.0965 29.8955 39.1461 30.177L39.7076 33.3613C39.8565 34.2059 39.6626 35.0758 39.168 35.7788C38.6734 36.4817 37.9189 36.9609 37.0705 37.1105L28.8949 38.5521L25.1513 17.321L33.3269 15.8794C34.1753 15.7299 35.0482 15.922 35.7534 16.4135C36.4586 16.9049 36.9384 17.6561 37.0873 18.5007L37.6488 21.6849Z" fill="white"/>
<path d="M11.2793 20.433C11.329 20.7145 11.4893 20.9652 11.7243 21.129C11.9594 21.2928 12.2503 21.3565 12.5331 21.3067C13.3815 21.1571 14.2544 21.3493 14.9596 21.8407C15.6646 22.3321 16.1443 23.0825 16.2933 23.9269C16.4422 24.7715 16.2483 25.6415 15.7537 26.3445C15.2591 27.0474 14.5045 27.5266 13.6562 27.6762C13.3734 27.7261 13.1218 27.8855 12.957 28.1198C12.7922 28.354 12.7272 28.6437 12.7767 28.925L13.3383 32.1103C13.4873 32.9548 13.9679 33.7049 14.673 34.1963C15.3781 34.6876 16.2503 34.88 17.0985 34.7305L25.2722 33.2893L21.5288 12.0592L13.3551 13.5004C12.5069 13.6501 11.753 14.1291 11.2585 14.832C10.764 15.535 10.5689 16.4041 10.7178 17.2487L11.2793 20.433Z" fill="white"/>
</svg>
