<svg width="163" height="51" viewBox="0 0 163 51" fill="none" xmlns="http://www.w3.org/2000/svg">
<rect y="0.645508" width="50.3542" height="50.3542" rx="25.1771" fill="#008BFF"/>
<path d="M37.6488 22.3305C37.6983 22.6119 37.6333 22.9014 37.4685 23.1357C37.3036 23.37 37.0522 23.5304 36.7694 23.5803C35.9212 23.7299 35.1663 24.2081 34.6718 24.911C34.1772 25.614 33.9833 26.484 34.1322 27.3286C34.2811 28.1729 34.761 28.9234 35.4659 29.4148C36.171 29.9062 37.0441 30.0983 37.8924 29.9488C38.175 29.899 38.4661 29.9629 38.7011 30.1265C38.9362 30.2903 39.0965 30.541 39.1461 30.8225L39.7076 34.0068C39.8565 34.8514 39.6626 35.7213 39.168 36.4243C38.6734 37.1272 37.9189 37.6064 37.0705 37.756L28.8949 39.1976L25.1513 17.9665L33.3269 16.525C34.1753 16.3754 35.0482 16.5675 35.7534 17.059C36.4586 17.5504 36.9384 18.3016 37.0873 19.1462L37.6488 22.3305Z" fill="white"/>
<path d="M11.2793 21.0785C11.329 21.36 11.4893 21.6107 11.7243 21.7745C11.9594 21.9383 12.2503 22.002 12.5331 21.9522C13.3815 21.8026 14.2544 21.9948 14.9596 22.4862C15.6646 22.9776 16.1443 23.728 16.2933 24.5725C16.4422 25.4171 16.2483 26.287 15.7537 26.99C15.2591 27.693 14.5045 28.1721 13.6562 28.3217C13.3734 28.3716 13.1218 28.531 12.957 28.7653C12.7922 28.9995 12.7272 29.2892 12.7767 29.5706L13.3383 32.7558C13.4873 33.6003 13.9679 34.3505 14.673 34.8419C15.3781 35.3331 16.2503 35.5255 17.0985 35.3761L25.2722 33.9348L21.5288 12.7047L13.3551 14.1459C12.5069 14.2956 11.753 14.7746 11.2585 15.4775C10.764 16.1805 10.5689 17.0496 10.7178 17.8942L11.2793 21.0785Z" fill="white"/>
<path d="M61.8457 12.3795V22.2025H61.9076L69.8094 12.3795H74.8603L65.874 23.225L75.1702 35.0002H70.1192L61.9076 24.2476H61.8457V35.0002H57.5074V12.3795H61.8457Z" fill="#008BFF"/>
<path d="M82.5514 18.577C85.0097 18.577 86.776 19.0624 87.8502 20.0334C88.9245 20.9836 89.4616 22.533 89.4616 24.6814V30.662C89.4616 32.1287 89.6165 33.5748 89.9264 35.0002H86.115C85.991 34.3185 85.898 33.5231 85.8361 32.6142H85.7741C85.1957 33.4612 84.4107 34.1222 83.4191 34.5974C82.4481 35.0725 81.3842 35.3101 80.2274 35.3101C78.7193 35.3101 77.5108 34.8969 76.6019 34.0706C75.7136 33.2236 75.2694 32.0564 75.2694 30.569C75.2694 28.7718 76.0234 27.336 77.5315 26.2618C79.0602 25.1669 81.25 24.6195 84.1008 24.6195H85.4332V24.5265C85.4332 23.4316 85.2163 22.6673 84.7825 22.2334C84.3487 21.7996 83.574 21.5827 82.4585 21.5827C80.434 21.5827 78.5231 22.0475 76.7258 22.9771L76.1371 19.9714C78.0996 19.0418 80.2377 18.577 82.5514 18.577ZM79.0499 30.2591C79.0499 30.9202 79.2461 31.4367 79.6386 31.8085C80.0311 32.1803 80.5682 32.3663 81.25 32.3663C82.4275 32.3663 83.4191 31.9841 84.2247 31.2197C85.0304 30.4554 85.4332 29.4948 85.4332 28.3379V27.2844H84.1008C82.4688 27.2844 81.219 27.5633 80.3513 28.121C79.4837 28.6581 79.0499 29.3708 79.0499 30.2591Z" fill="#008BFF"/>
<path d="M98.1039 19.5066H103.651V22.5123H98.1039V29.1126C98.1039 30.3314 98.2588 31.1578 98.5687 31.5916C98.8785 32.0048 99.4363 32.2113 100.242 32.2113C101.234 32.2113 102.163 32.0357 103.031 31.6846L103.558 34.6903C102.277 35.1035 100.893 35.3101 99.4053 35.3101C97.5048 35.3101 96.1207 34.8866 95.253 34.0396C94.406 33.1926 93.9826 31.7878 93.9826 29.8253V22.5123H90.6359V19.5066H93.9826V13.619H98.1039V19.5066Z" fill="#008BFF"/>
<path d="M107.313 35.0002V18.8868H111.559V35.0002H107.313Z" fill="#008BFF"/>
<path d="M126.524 22.7912C124.81 22.0062 123.126 21.6137 121.473 21.6137C119.573 21.6137 118.622 22.1715 118.622 23.287C118.622 23.8241 118.829 24.2373 119.242 24.5265C119.655 24.8157 120.378 25.0326 121.411 25.1772C123.704 25.5078 125.347 26.1069 126.338 26.9745C127.33 27.8215 127.826 28.999 127.826 30.507C127.826 31.9944 127.247 33.1719 126.09 34.0396C124.954 34.8866 123.343 35.3101 121.256 35.3101C118.757 35.3101 116.536 34.7936 114.594 33.7607L115.369 30.7239C117.125 31.7362 119.015 32.2423 121.039 32.2423C122.837 32.2423 123.735 31.6432 123.735 30.4451C123.735 29.8873 123.549 29.4741 123.178 29.2056C122.806 28.9164 122.083 28.6788 121.009 28.4929C118.736 28.121 117.104 27.5116 116.113 26.6646C115.142 25.8176 114.656 24.6711 114.656 23.225C114.656 21.7996 115.214 20.6738 116.329 19.8474C117.466 19.0004 119.108 18.577 121.256 18.577C123.405 18.577 125.419 18.9695 127.299 19.7545L126.524 22.7912Z" fill="#008BFF"/>
<path d="M130.1 11.7598H134.128V20.963H134.19C135.533 19.3723 137.186 18.577 139.148 18.577C141.007 18.577 142.371 19.1554 143.238 20.3122C144.127 21.4484 144.571 23.318 144.571 25.9209V35.0002H140.605V26.3238C140.605 24.5472 140.398 23.349 139.985 22.7292C139.572 22.0888 138.828 21.7686 137.754 21.7686C136.783 21.7686 135.936 22.2541 135.213 23.225C134.49 24.1753 134.128 25.2392 134.128 26.4167V35.0002H130.1V11.7598Z" fill="#008BFF"/>
<path d="M153.665 18.577C156.123 18.577 157.889 19.0624 158.964 20.0334C160.038 20.9836 160.575 22.533 160.575 24.6814V30.662C160.575 32.1287 160.73 33.5748 161.04 35.0002H157.228C157.104 34.3185 157.011 33.5231 156.949 32.6142H156.887C156.309 33.4612 155.524 34.1222 154.532 34.5974C153.561 35.0725 152.498 35.3101 151.341 35.3101C149.833 35.3101 148.624 34.8969 147.715 34.0706C146.827 33.2236 146.383 32.0564 146.383 30.569C146.383 28.7718 147.137 27.336 148.645 26.2618C150.173 25.1669 152.363 24.6195 155.214 24.6195H156.546V24.5265C156.546 23.4316 156.33 22.6673 155.896 22.2334C155.462 21.7996 154.687 21.5827 153.572 21.5827C151.547 21.5827 149.636 22.0475 147.839 22.9771L147.25 19.9714C149.213 19.0418 151.351 18.577 153.665 18.577ZM150.163 30.2591C150.163 30.9202 150.359 31.4367 150.752 31.8085C151.144 32.1803 151.682 32.3663 152.363 32.3663C153.541 32.3663 154.532 31.9841 155.338 31.2197C156.144 30.4554 156.546 29.4948 156.546 28.3379V27.2844H155.214C153.582 27.2844 152.332 27.5633 151.465 28.121C150.597 28.6581 150.163 29.3708 150.163 30.2591Z" fill="#008BFF"/>
<g clip-path="url(#clip0_678_662)">
<path d="M112.533 10.3849L112.57 10.3828L112.615 10.3856L112.647 10.3912L112.69 10.4034L112.727 10.4195L112.762 10.4395L112.794 10.4629L112.822 10.4891L112.841 10.5097L112.869 10.5503L112.887 10.5839C112.904 10.6188 112.914 10.6559 112.919 10.6944L112.921 10.7314C112.921 10.7577 112.918 10.7835 112.912 10.8084L112.9 10.8514L110.616 17.1726C110.573 17.2669 110.503 17.3467 110.416 17.4027C110.328 17.4587 110.227 17.4884 110.123 17.4884C110.03 17.4887 109.938 17.4647 109.856 17.419C109.775 17.3732 109.707 17.3071 109.658 17.2271L109.636 17.1827L108.464 14.8392L106.131 13.6726C106.045 13.6332 105.97 13.5717 105.915 13.4945C105.86 13.4172 105.826 13.3268 105.817 13.2324L105.815 13.1803C105.815 12.9844 105.92 12.8054 106.109 12.7012L106.158 12.6767L112.458 10.4017L112.495 10.3912L112.533 10.3849Z" fill="#008BFF"/>
</g>
<defs>
<clipPath id="clip0_678_662">
<rect width="8.39237" height="8.39237" fill="white" transform="translate(105.227 9.68262)"/>
</clipPath>
</defs>
</svg>
