<svg width="163" height="51" viewBox="0 0 163 51" fill="none" xmlns="http://www.w3.org/2000/svg">
<path d="M25.1768 0C39.0816 0 50.3543 11.272 50.3545 25.1768C50.3545 39.0817 39.0817 50.3545 25.1768 50.3545C11.272 50.3543 0 39.0816 0 25.1768C0.000196893 11.2721 11.2721 0.000196881 25.1768 0ZM35.7529 16.4131C35.0479 15.9218 34.1753 15.7294 33.3271 15.8789L25.1514 17.3203L28.8945 38.5518L37.0703 37.1104C37.9186 36.9608 38.6734 36.4813 39.168 35.7783C39.6625 35.0753 39.8569 34.2049 39.708 33.3604L39.1465 30.1768C39.0968 29.8952 38.9362 29.6443 38.7012 29.4805C38.4663 29.317 38.1751 29.253 37.8926 29.3027C37.0443 29.4522 36.1709 29.2599 35.4658 28.7686C34.761 28.2771 34.2807 27.5269 34.1318 26.6826C33.9829 25.838 34.1773 24.9676 34.6719 24.2646C35.1664 23.562 35.9215 23.0842 36.7695 22.9346C37.0522 22.8847 37.3039 22.7244 37.4688 22.4902C37.6336 22.256 37.698 21.966 37.6484 21.6846L37.0869 18.5C36.9379 17.6555 36.458 16.9045 35.7529 16.4131ZM13.3555 13.5C12.5073 13.6497 11.7533 14.1292 11.2588 14.832C10.7642 15.535 10.5689 16.4044 10.7178 17.249L11.2793 20.4326C11.3289 20.7142 11.4895 20.9651 11.7246 21.1289C11.9596 21.2926 12.2505 21.3565 12.5332 21.3066C13.3815 21.1571 14.2548 21.3494 14.96 21.8408C15.6648 22.3322 16.1439 23.0826 16.293 23.9268C16.4419 24.7714 16.2485 25.6417 15.7539 26.3447C15.2593 27.0476 14.5045 27.5262 13.6562 27.6758C13.3735 27.7257 13.1219 27.8858 12.957 28.1201C12.7924 28.3542 12.727 28.6436 12.7764 28.9248L13.3379 32.1104C13.4869 32.9548 13.9678 33.7049 14.6729 34.1963C15.3779 34.6876 16.2505 34.8799 17.0986 34.7305L25.2725 33.2891L21.5283 12.0596L13.3555 13.5Z" fill="white"/>
<path d="M61.8455 14.3795V24.2025H61.9075L69.8093 14.3795H74.8602L65.8739 25.225L75.17 37.0002H70.1191L61.9075 26.2476H61.8455V37.0002H57.5073V14.3795H61.8455Z" fill="white"/>
<path d="M82.5513 20.577C85.0096 20.577 86.7759 21.0624 87.8501 22.0334C88.9243 22.9836 89.4614 24.533 89.4614 26.6814V32.662C89.4614 34.1287 89.6164 35.5748 89.9263 37.0002H86.1148C85.9909 36.3185 85.8979 35.5231 85.8359 34.6142H85.774C85.1955 35.4612 84.4105 36.1222 83.4189 36.5974C82.448 37.0725 81.3841 37.3101 80.2273 37.3101C78.7192 37.3101 77.5107 36.8969 76.6017 36.0706C75.7134 35.2236 75.2693 34.0564 75.2693 32.569C75.2693 30.7718 76.0233 29.336 77.5314 28.2618C79.0601 27.1669 81.2498 26.6195 84.1007 26.6195H85.4331V26.5265C85.4331 25.4316 85.2162 24.6673 84.7824 24.2334C84.3486 23.7996 83.5739 23.5827 82.4583 23.5827C80.4338 23.5827 78.523 24.0475 76.7257 24.9771L76.1369 21.9714C78.0995 21.0418 80.2376 20.577 82.5513 20.577ZM79.0497 32.2591C79.0497 32.9202 79.246 33.4367 79.6385 33.8085C80.031 34.1803 80.5681 34.3663 81.2498 34.3663C82.4273 34.3663 83.4189 33.9841 84.2246 33.2197C85.0303 32.4554 85.4331 31.4948 85.4331 30.3379V29.2844H84.1007C82.4687 29.2844 81.2188 29.5633 80.3512 30.121C79.4836 30.6581 79.0497 31.3708 79.0497 32.2591Z" fill="white"/>
<path d="M98.1037 21.5066H103.65V24.5123H98.1037V31.1126C98.1037 32.3314 98.2587 33.1578 98.5685 33.5916C98.8784 34.0048 99.4362 34.2113 100.242 34.2113C101.233 34.2113 102.163 34.0357 103.031 33.6846L103.557 36.6903C102.277 37.1035 100.893 37.3101 99.4052 37.3101C97.5047 37.3101 96.1206 36.8866 95.2529 36.0396C94.4059 35.1926 93.9824 33.7878 93.9824 31.8253V24.5123H90.6358V21.5066H93.9824V15.619H98.1037V21.5066Z" fill="white"/>
<path d="M107.313 37.0002V20.8868H111.558V37.0002H107.313Z" fill="white"/>
<path d="M126.524 24.7912C124.809 24.0062 123.126 23.6137 121.473 23.6137C119.573 23.6137 118.622 24.1715 118.622 25.287C118.622 25.8241 118.829 26.2373 119.242 26.5265C119.655 26.8157 120.378 27.0326 121.411 27.1772C123.704 27.5078 125.347 28.1069 126.338 28.9745C127.33 29.8215 127.826 30.999 127.826 32.507C127.826 33.9944 127.247 35.1719 126.09 36.0396C124.954 36.8866 123.343 37.3101 121.256 37.3101C118.757 37.3101 116.536 36.7936 114.594 35.7607L115.369 32.7239C117.125 33.7362 119.015 34.2423 121.039 34.2423C122.837 34.2423 123.735 33.6432 123.735 32.4451C123.735 31.8873 123.549 31.4741 123.177 31.2056C122.806 30.9164 122.083 30.6788 121.008 30.4929C118.736 30.121 117.104 29.5116 116.112 28.6646C115.141 27.8176 114.656 26.6711 114.656 25.225C114.656 23.7996 115.214 22.6738 116.329 21.8474C117.466 21.0004 119.108 20.577 121.256 20.577C123.405 20.577 125.419 20.9695 127.299 21.7545L126.524 24.7912Z" fill="white"/>
<path d="M130.1 13.7598H134.128V22.963H134.19C135.533 21.3723 137.185 20.577 139.148 20.577C141.007 20.577 142.371 21.1554 143.238 22.3122C144.127 23.4484 144.571 25.318 144.571 27.9209V37.0002H140.604V28.3238C140.604 26.5472 140.398 25.349 139.985 24.7292C139.572 24.0888 138.828 23.7686 137.754 23.7686C136.783 23.7686 135.936 24.2541 135.213 25.225C134.49 26.1753 134.128 27.2392 134.128 28.4167V37.0002H130.1V13.7598Z" fill="white"/>
<path d="M153.665 20.577C156.123 20.577 157.889 21.0624 158.963 22.0334C160.038 22.9836 160.575 24.533 160.575 26.6814V32.662C160.575 34.1287 160.73 35.5748 161.04 37.0002H157.228C157.104 36.3185 157.011 35.5231 156.949 34.6142H156.887C156.309 35.4612 155.524 36.1222 154.532 36.5974C153.561 37.0725 152.497 37.3101 151.341 37.3101C149.832 37.3101 148.624 36.8969 147.715 36.0706C146.827 35.2236 146.383 34.0564 146.383 32.569C146.383 30.7718 147.137 29.336 148.645 28.2618C150.173 27.1669 152.363 26.6195 155.214 26.6195H156.546V26.5265C156.546 25.4316 156.329 24.6673 155.896 24.2334C155.462 23.7996 154.687 23.5827 153.572 23.5827C151.547 23.5827 149.636 24.0475 147.839 24.9771L147.25 21.9714C149.213 21.0418 151.351 20.577 153.665 20.577ZM150.163 32.2591C150.163 32.9202 150.359 33.4367 150.752 33.8085C151.144 34.1803 151.681 34.3663 152.363 34.3663C153.541 34.3663 154.532 33.9841 155.338 33.2197C156.144 32.4554 156.546 31.4948 156.546 30.3379V29.2844H155.214C153.582 29.2844 152.332 29.5633 151.464 30.121C150.597 30.6581 150.163 31.3708 150.163 32.2591Z" fill="white"/>
<g clip-path="url(#clip0_711_838)">
<path d="M112.533 12.3849L112.57 12.3828L112.615 12.3856L112.647 12.3912L112.69 12.4034L112.727 12.4195L112.762 12.4395L112.794 12.4629L112.822 12.4891L112.84 12.5097L112.869 12.5503L112.887 12.5839C112.904 12.6188 112.914 12.6559 112.919 12.6944L112.92 12.7314C112.92 12.7577 112.918 12.7835 112.912 12.8084L112.9 12.8514L110.616 19.1726C110.572 19.2669 110.503 19.3467 110.416 19.4027C110.328 19.4587 110.227 19.4884 110.123 19.4884C110.03 19.4887 109.938 19.4647 109.856 19.419C109.775 19.3732 109.707 19.3071 109.658 19.2271L109.636 19.1827L108.463 16.8392L106.131 15.6726C106.045 15.6332 105.97 15.5717 105.915 15.4945C105.86 15.4172 105.826 15.3268 105.817 15.2324L105.815 15.1803C105.815 14.9844 105.92 14.8054 106.109 14.7012L106.158 14.6767L112.458 12.4017L112.495 12.3912L112.533 12.3849Z" fill="white"/>
</g>
<defs>
<clipPath id="clip0_711_838">
<rect width="8.39237" height="8.39237" fill="white" transform="translate(105.227 11.6826)"/>
</clipPath>
</defs>
</svg>
